<svg width="46" height="46" viewBox="0 0 46 46" fill="none" xmlns="http://www.w3.org/2000/svg">
<g opacity="0.5">
<path d="M9.37158 33.2571H34.946L38.6538 34.7782H10.9878L9.37158 33.2571Z" fill="#E2E2E2"/>
<path d="M28.0966 29.391L30.0321 29.256L28.4117 28.1757L28.6367 27.8156L30.3472 28.6708L29.537 26.9153L29.8521 26.7353L30.9324 28.3107L31.0674 26.4202H31.4725L31.6076 28.3107L32.6428 26.7353L33.003 26.9603L32.1927 28.6708L33.9032 27.8606L34.0833 28.1757L32.5078 29.256L34.4434 29.391V29.7961L32.5078 29.9312L34.0833 30.9665L33.9032 31.3266L32.1927 30.5163L33.003 32.2268L32.6428 32.4069L31.6076 30.8314L31.4275 32.767H31.0674L30.9324 30.8314L29.8521 32.4069L29.492 32.2268L30.3472 30.5163L28.6367 31.3266L28.4117 30.9665L29.9871 29.9312L28.0966 29.7961V29.391Z" fill="#FBFFFE"/>
<path d="M27.7492 29.6744L27.749 29.6744V29.6611C27.749 27.7189 29.3247 26.198 31.2122 26.198C33.1544 26.198 34.6753 27.7736 34.6753 29.6611C34.6753 31.6033 33.0997 33.1243 31.2122 33.1243C29.3127 33.1243 27.8011 31.5941 27.7492 29.6744ZM16.3567 26.3343L17.059 26.0595L16.2779 25.6853C16.2634 25.7144 16.2504 25.7451 16.2398 25.7769C16.2087 25.8704 16.1987 25.9704 16.2285 26.0812C16.2466 26.1486 16.2833 26.2339 16.3567 26.3343ZM34.951 29.6611C34.951 27.5924 33.2809 25.9223 31.2122 25.9223C29.1434 25.9223 27.4733 27.5924 27.4733 29.6611C27.4733 31.7299 29.1434 33.4 31.2122 33.4C33.2809 33.4 34.951 31.7299 34.951 29.6611Z" fill="#CBCBCB" stroke="#1F1F1F" stroke-width="0.984654"/>
<mask id="path-4-inside-1_147_902" fill="white">
<path d="M31.2482 27.4554C32.4185 27.4554 33.3638 28.4007 33.3638 29.571C33.3638 30.7414 32.4185 31.6866 31.2482 31.6866C30.0778 31.6866 29.1326 30.7414 29.1326 29.571C29.1326 28.4007 30.0778 27.4554 31.2482 27.4554ZM31.2482 30.8314C31.9684 30.8314 32.5085 30.2462 32.5085 29.571C32.5085 28.8959 31.9234 28.3107 31.2482 28.3107C30.528 28.3107 29.9878 28.8959 29.9878 29.571C29.9878 30.2462 30.573 30.8314 31.2482 30.8314Z"/>
</mask>
<path d="M31.2482 27.4554C32.4185 27.4554 33.3638 28.4007 33.3638 29.571C33.3638 30.7414 32.4185 31.6866 31.2482 31.6866C30.0778 31.6866 29.1326 30.7414 29.1326 29.571C29.1326 28.4007 30.0778 27.4554 31.2482 27.4554ZM31.2482 30.8314C31.9684 30.8314 32.5085 30.2462 32.5085 29.571C32.5085 28.8959 31.9234 28.3107 31.2482 28.3107C30.528 28.3107 29.9878 28.8959 29.9878 29.571C29.9878 30.2462 30.573 30.8314 31.2482 30.8314Z" fill="#EEEEEE"/>
<path d="M31.2482 26.4708C32.9623 26.4708 34.3484 27.8569 34.3484 29.571H32.3791C32.3791 28.9445 31.8747 28.4401 31.2482 28.4401V26.4708ZM34.3484 29.571C34.3484 31.2852 32.9623 32.6713 31.2482 32.6713V30.702C31.8747 30.702 32.3791 30.1976 32.3791 29.571H34.3484ZM31.2482 32.6713C29.534 32.6713 28.1479 31.2852 28.1479 29.571H30.1172C30.1172 30.1976 30.6216 30.702 31.2482 30.702V32.6713ZM28.1479 29.571C28.1479 27.8569 29.534 26.4708 31.2482 26.4708V28.4401C30.6216 28.4401 30.1172 28.9445 30.1172 29.571H28.1479ZM31.2482 29.8467C31.4018 29.8467 31.5239 29.7255 31.5239 29.571H33.4932C33.4932 30.767 32.535 31.8161 31.2482 31.8161V29.8467ZM31.5239 29.571C31.5239 29.5209 31.5008 29.4495 31.4353 29.3839C31.3698 29.3184 31.2983 29.2953 31.2482 29.2953V27.326C32.4672 27.326 33.4932 28.352 33.4932 29.571H31.5239ZM31.2482 29.2953C31.0946 29.2953 30.9725 29.4166 30.9725 29.571H29.0032C29.0032 28.3751 29.9614 27.326 31.2482 27.326V29.2953ZM30.9725 29.571C30.9725 29.6212 30.9955 29.6926 31.0611 29.7582C31.1266 29.8237 31.1981 29.8467 31.2482 29.8467V31.8161C30.0292 31.8161 29.0032 30.79 29.0032 29.571H30.9725Z" fill="#CBCBCB" mask="url(#path-4-inside-1_147_902)"/>
<path d="M17.2908 28.3041L20.5824 26.989V25.3076L17.2908 26.8668V28.3041Z" fill="#F6F6F6" stroke="#1F1F1F" stroke-width="0.984654"/>
<mask id="path-7-inside-2_147_902" fill="white">
<path d="M31.0229 22.9542L24.4511 23.8995C26.4766 23.6081 31.0229 22.9542 31.0229 22.9542Z"/>
</mask>
<path d="M31.0229 22.9542L24.4511 23.8995C26.4766 23.6081 31.0229 22.9542 31.0229 22.9542Z" fill="#F6F6F6"/>
<path d="M31.1631 23.9288L24.5913 24.8741L24.3109 22.9249L30.8828 21.9796L31.1631 23.9288ZM24.3109 22.9249C25.3237 22.7792 26.9666 22.5429 28.3564 22.343C29.0513 22.243 29.6829 22.1522 30.1408 22.0863C30.3697 22.0534 30.5552 22.0267 30.6835 22.0083C30.7476 21.999 30.7974 21.9919 30.8312 21.987C30.8481 21.9846 30.861 21.9827 30.8697 21.9815C30.874 21.9809 30.8773 21.9804 30.8795 21.9801C30.8806 21.9799 30.8814 21.9798 30.8819 21.9797C30.8822 21.9797 30.8824 21.9796 30.8826 21.9796C30.8826 21.9796 30.8827 21.9796 30.8827 21.9796C30.8827 21.9796 30.8828 21.9796 31.0229 22.9542C31.1631 23.9288 31.1631 23.9289 31.1631 23.9289C31.163 23.9289 31.163 23.9289 31.1629 23.9289C31.1628 23.9289 31.1626 23.9289 31.1623 23.929C31.1618 23.929 31.1609 23.9292 31.1598 23.9293C31.1576 23.9296 31.1544 23.9301 31.15 23.9307C31.1414 23.932 31.1285 23.9338 31.1116 23.9363C31.0778 23.9411 31.028 23.9483 30.9638 23.9575C30.8356 23.976 30.6501 24.0026 30.4211 24.0356C29.9633 24.1014 29.3317 24.1923 28.6368 24.2922C27.247 24.4921 25.604 24.7284 24.5913 24.8741L24.3109 22.9249Z" fill="#1F1F1F" mask="url(#path-7-inside-2_147_902)"/>
<path d="M23.6671 26.0071L24.2829 23.0585L13.8758 22.365L13.2811 23.8775L18.4276 24.9328L23.6671 26.0071Z" fill="#03C068" stroke="#1F1F1F" stroke-width="0.984654"/>
<path d="M25.6431 24.0766L25.5504 22.6904L25.5496 22.6786V22.6669C25.5496 22.6057 25.5225 22.5308 25.4455 22.4455C25.3704 22.3624 25.2628 22.2877 25.1474 22.2348C25.0772 22.212 24.8959 22.1827 24.584 22.1596C24.2754 22.1367 23.8794 22.1221 23.4245 22.114C22.5155 22.098 21.3875 22.1087 20.2851 22.1302C19.1835 22.1517 18.1107 22.184 17.313 22.2109C17.1081 22.2178 16.9214 22.2244 16.7571 22.2303L17.109 22.6106L20.1607 22.7713L20.1927 22.773L20.224 22.7805L25.6431 24.0766Z" fill="#CBCBCB" stroke="#1F1F1F" stroke-width="0.703324"/>
<path d="M31.6982 25.022C30.8045 25.022 29.9678 25.3135 29.2833 25.8174L31.3483 25.8605L33.9114 25.9139C33.7905 25.7873 33.6175 25.6555 33.3999 25.5305C32.8515 25.2157 32.1587 25.022 31.6982 25.022Z" fill="#03C068" stroke="#1F1F1F" stroke-width="0.984654"/>
<path d="M10.4071 29.1209L12.3427 28.9858L10.7672 27.9055L10.9473 27.5454L12.7028 28.4007L11.8475 26.6452L12.2076 26.4651L13.2429 28.0406L13.3779 26.15H13.7831L13.9181 28.0406L14.9984 26.4651L15.3585 26.6902L14.5033 28.4007L16.2588 27.5904L16.4388 27.9055L14.8184 28.9858L16.7539 29.1209V29.526L14.8634 29.661L16.4388 30.6963L16.2138 31.0564L14.5033 30.2462L15.3585 31.9567L14.9984 32.1367L13.9181 30.5613L13.7831 32.4968H13.3779L13.2429 30.5613L12.1626 32.1367L11.8475 31.9567L12.6577 30.2462L10.9473 31.0564L10.7672 30.6963L12.3427 29.661L10.4071 29.526V29.1209Z" fill="#FBFFFE"/>
<path d="M17.3417 29.301C17.3417 27.2323 15.6715 25.5622 13.6028 25.5622C11.534 25.5622 9.86391 27.2323 9.86391 29.301C9.86391 31.3698 11.534 33.0399 13.6028 33.0399C15.6715 33.0399 17.3417 31.3698 17.3417 29.301ZM17.066 29.301C17.066 31.2432 15.4903 32.7642 13.6028 32.7642C11.7153 32.7642 10.1396 31.2432 10.1396 29.301C10.1396 27.3588 11.7153 25.8379 13.6028 25.8379C15.545 25.8379 17.066 27.4135 17.066 29.301Z" fill="#CBCBCB" stroke="#1F1F1F" stroke-width="0.984654"/>
<mask id="path-14-inside-3_147_902" fill="white">
<path d="M13.6032 27.1854C14.7735 27.1854 15.7188 28.1307 15.7188 29.301C15.7188 30.4714 14.7735 31.4166 13.6032 31.4166C12.4328 31.4166 11.4876 30.4714 11.4876 29.301C11.4876 28.1307 12.4328 27.1854 13.6032 27.1854ZM13.6032 30.5614C14.3234 30.5614 14.8635 29.9762 14.8635 29.301C14.8635 28.6258 14.2783 28.0407 13.6032 28.0407C12.928 28.0407 12.3428 28.6258 12.3428 29.301C12.3428 29.9762 12.8829 30.5614 13.6032 30.5614Z"/>
</mask>
<path d="M13.6032 27.1854C14.7735 27.1854 15.7188 28.1307 15.7188 29.301C15.7188 30.4714 14.7735 31.4166 13.6032 31.4166C12.4328 31.4166 11.4876 30.4714 11.4876 29.301C11.4876 28.1307 12.4328 27.1854 13.6032 27.1854ZM13.6032 30.5614C14.3234 30.5614 14.8635 29.9762 14.8635 29.301C14.8635 28.6258 14.2783 28.0407 13.6032 28.0407C12.928 28.0407 12.3428 28.6258 12.3428 29.301C12.3428 29.9762 12.8829 30.5614 13.6032 30.5614Z" fill="#EEEEEE"/>
<path d="M13.6032 26.2008C15.3173 26.2008 16.7034 27.5869 16.7034 29.301H14.7341C14.7341 28.6745 14.2297 28.1701 13.6032 28.1701V26.2008ZM16.7034 29.301C16.7034 31.0152 15.3173 32.4013 13.6032 32.4013V30.432C14.2297 30.432 14.7341 29.9275 14.7341 29.301H16.7034ZM13.6032 32.4013C11.889 32.4013 10.5029 31.0152 10.5029 29.301H12.4722C12.4722 29.9275 12.9766 30.432 13.6032 30.432V32.4013ZM10.5029 29.301C10.5029 27.5869 11.889 26.2008 13.6032 26.2008V28.1701C12.9766 28.1701 12.4722 28.6745 12.4722 29.301H10.5029ZM13.6032 29.5767C13.7568 29.5767 13.8789 29.4555 13.8789 29.301H15.8482C15.8482 30.497 14.8899 31.546 13.6032 31.546V29.5767ZM13.8789 29.301C13.8789 29.2509 13.8558 29.1794 13.7903 29.1139C13.7247 29.0484 13.6533 29.0253 13.6032 29.0253V27.056C14.8222 27.056 15.8482 28.082 15.8482 29.301H13.8789ZM13.6032 29.0253C13.553 29.0253 13.4816 29.0484 13.416 29.1139C13.3505 29.1794 13.3274 29.2509 13.3274 29.301H11.3581C11.3581 28.082 12.3842 27.056 13.6032 27.056V29.0253ZM13.3274 29.301C13.3274 29.4555 13.4495 29.5767 13.6032 29.5767V31.546C12.3164 31.546 11.3581 30.497 11.3581 29.301H13.3274Z" fill="#CBCBCB" mask="url(#path-14-inside-3_147_902)"/>
<path d="M29.177 26.06L28.9039 25.6504L28.9038 25.6505L28.9035 25.6506L28.9027 25.6512L28.8998 25.6531L28.8897 25.6599L28.8528 25.685C28.8213 25.7065 28.7765 25.7373 28.7224 25.7753C28.6145 25.8512 28.4677 25.9568 28.3142 26.0749C28.1619 26.192 27.9963 26.3265 27.8536 26.4597C27.7282 26.5768 27.5715 26.7366 27.4822 26.9085C27.337 27.1722 27.2499 27.5614 27.1897 27.9268C27.1252 28.3181 27.0803 28.7616 27.0488 29.1734C27.0172 29.5867 26.9986 29.976 26.9879 30.2615C26.9826 30.4044 26.9792 30.5218 26.9771 30.6037L26.9749 30.6989L26.9744 30.7243L26.9743 30.731L26.9743 30.7328L26.9743 30.7334L26.9743 30.7335L27.4665 30.7413L26.9743 30.7336L26.9742 30.7413H26.9742C26.9742 30.788 26.9564 30.8193 26.9464 30.8299C26.9431 30.8334 26.9411 30.8344 26.9388 30.8352C26.9369 30.8359 26.9242 30.8403 26.8951 30.8376L19.1783 29.7891C19.288 29.2115 19.2969 28.4594 19.0901 27.5385C19.4655 27.4767 19.7928 27.3589 20.0878 27.1989C20.527 26.9607 20.8735 26.6396 21.1825 26.3277C21.264 26.2455 21.3433 26.1637 21.4217 26.0829C21.9519 25.5363 22.4402 25.0328 23.2732 24.7205L23.2765 24.7192L23.2765 24.7192C24.5828 24.2185 26.2117 23.8536 27.6169 23.6138C29.029 23.3729 30.1656 23.2664 30.4824 23.2664C30.7474 23.2664 31.0732 23.191 31.2533 22.8892C31.4132 22.6212 31.3555 22.3326 31.3081 22.1758C31.2066 21.8399 30.9651 21.5091 30.8668 21.3862L30.8623 21.3805L30.8575 21.3749C30.7849 21.2895 30.7114 21.2083 30.637 21.1312C31.0648 21.4551 31.4383 21.8458 31.7422 22.2878L31.7431 22.2891L31.7431 22.2891C31.7909 22.3581 31.8392 22.4269 31.8872 22.495C32.0588 22.7389 32.2247 22.9749 32.3387 23.187C32.3677 23.2411 32.3887 23.2855 32.4038 23.3211C31.9275 23.6496 31.1159 24.1904 30.3907 24.6704C29.9917 24.9346 29.6207 25.1791 29.3495 25.3575L29.0265 25.5699L28.938 25.628L28.9149 25.6431L28.909 25.647L28.9075 25.648L28.9072 25.6482L28.9071 25.6483L29.177 26.06ZM29.177 26.06L28.9039 25.6503L28.9071 25.6483L29.177 26.06ZM17.6106 24.2876L17.6112 24.2861L17.6111 24.2864L17.6109 24.2869L17.6106 24.2876ZM17.6943 23.9924C17.7028 23.9461 17.7094 23.8977 17.7127 23.8491C17.7263 23.652 17.6882 23.5523 17.6141 23.4946C17.435 23.4618 17.2844 23.3775 17.1685 23.2976C17.0185 23.1941 16.8686 23.0564 16.7273 22.9225C16.6867 22.884 16.6455 22.8446 16.6033 22.8043C16.3388 22.5511 16.0393 22.2645 15.6433 21.9772C14.7926 21.3599 13.4726 20.7255 11.2379 20.6994C11.2286 20.7401 11.2191 20.7838 11.2098 20.8301C11.1508 21.1234 11.1008 21.5066 11.1241 21.8928C11.1476 22.2812 11.2429 22.6371 11.4414 22.9118C11.6304 23.1733 11.9451 23.4065 12.505 23.5044C14.1486 23.7921 15.5391 23.9126 16.5166 23.9613C17.0052 23.9857 17.3902 23.9921 17.6516 23.9924C17.6662 23.9924 17.6804 23.9924 17.6943 23.9924Z" fill="#03C068" stroke="#1F1F1F" stroke-width="0.984654"/>
</g>
</svg>
