<svg width="17" height="18" viewBox="0 0 17 18" fill="none" xmlns="http://www.w3.org/2000/svg">
<rect width="17" height="17" rx="8.49998" transform="matrix(1 9.61171e-07 9.61175e-07 1 0 0.5)" fill="#ED2115"/>
<path d="M11.3297 11.2327C11.409 11.312 11.4535 11.4195 11.4535 11.5316C11.4535 11.6437 11.409 11.7511 11.3297 11.8304C11.2505 11.9097 11.143 11.9542 11.0309 11.9542C10.9188 11.9542 10.8113 11.9097 10.7321 11.8304L8.49998 9.59763L6.26721 11.8297C6.18796 11.909 6.08047 11.9535 5.96838 11.9535C5.8563 11.9535 5.74881 11.909 5.66956 11.8297C5.5903 11.7504 5.54578 11.643 5.54578 11.5309C5.54578 11.4188 5.5903 11.3113 5.66956 11.232L7.90233 8.99997L5.67026 6.7672C5.591 6.68794 5.54648 6.58045 5.54648 6.46837C5.54648 6.35629 5.591 6.24879 5.67026 6.16954C5.74951 6.09029 5.857 6.04576 5.96909 6.04576C6.08117 6.04576 6.18866 6.09029 6.26791 6.16954L8.49998 8.40231L10.7328 6.16919C10.812 6.08993 10.9195 6.04541 11.0316 6.04541C11.1437 6.04541 11.2512 6.08993 11.3304 6.16919C11.4097 6.24844 11.4542 6.35593 11.4542 6.46802C11.4542 6.5801 11.4097 6.68759 11.3304 6.76685L9.09764 8.99997L11.3297 11.2327Z" fill="white"/>
</svg>
