<svg width="21" height="21" viewBox="0 0 21 21" fill="none" xmlns="http://www.w3.org/2000/svg">
<path d="M18.3034 2.34109C17.1121 1.14813 15.5536 0.391349 13.8794 0.192863C12.2052 -0.00562218 10.513 0.365768 9.07576 1.2471C7.63854 2.12844 6.54018 3.46831 5.95793 5.0505C5.37568 6.6327 5.34349 8.36492 5.86657 9.96766L0.689695 15.1445C0.549801 15.2833 0.438889 15.4485 0.363407 15.6305C0.287925 15.8126 0.249378 16.0078 0.250008 16.2048V18.8945C0.250008 19.2924 0.408043 19.6739 0.689347 19.9552C0.970652 20.2365 1.35218 20.3945 1.75001 20.3945H4.75001C4.94892 20.3945 5.13969 20.3155 5.28034 20.1749C5.42099 20.0342 5.50001 19.8434 5.50001 19.6445V18.1445H7.00001C7.19892 18.1445 7.38969 18.0655 7.53034 17.9249C7.67099 17.7842 7.75001 17.5934 7.75001 17.3945V15.8945H9.25001C9.34853 15.8946 9.4461 15.8753 9.53715 15.8376C9.62819 15.8 9.71093 15.7448 9.78063 15.6752L10.6769 14.778C11.4271 15.022 12.2111 15.1457 13 15.1445H13.0094C14.492 15.1427 15.9408 14.7016 17.1728 13.8767C18.4048 13.0519 19.3646 11.8805 19.9312 10.5104C20.4977 9.14027 20.6454 7.633 20.3557 6.17898C20.066 4.72496 19.3518 3.38942 18.3034 2.34109ZM19 7.84141C18.8978 11.0373 16.2109 13.6408 13.0103 13.6445H13C12.2408 13.6458 11.4883 13.5023 10.7828 13.2217C10.6448 13.1618 10.492 13.1448 10.3442 13.1729C10.1964 13.201 10.0605 13.2729 9.95407 13.3792L8.9397 14.3945H7.00001C6.8011 14.3945 6.61033 14.4735 6.46968 14.6142C6.32903 14.7549 6.25001 14.9456 6.25001 15.1445V16.6445H4.75001C4.5511 16.6445 4.36033 16.7235 4.21968 16.8642C4.07903 17.0049 4.00001 17.1956 4.00001 17.3945V18.8945H1.75001V16.2048L7.26532 10.6905C7.37166 10.5841 7.44355 10.4481 7.47163 10.3003C7.49972 10.1525 7.48271 9.99972 7.42282 9.86172C7.14133 9.1539 6.99782 8.39877 7.00001 7.63703C7.00001 4.43641 9.60719 1.74953 12.8031 1.64734C13.6241 1.61995 14.4419 1.7614 15.2059 2.06295C15.97 2.3645 16.664 2.81972 17.2449 3.4004C17.8259 3.98109 18.2814 4.67487 18.5833 5.43878C18.8852 6.20269 19.027 7.02045 19 7.84141ZM16 5.76953C16 5.99203 15.934 6.20954 15.8104 6.39455C15.6868 6.57955 15.5111 6.72375 15.3055 6.8089C15.1 6.89404 14.8738 6.91632 14.6555 6.87291C14.4373 6.82951 14.2368 6.72236 14.0795 6.56503C13.9222 6.40769 13.815 6.20724 13.7716 5.98901C13.7282 5.77078 13.7505 5.54458 13.8356 5.33901C13.9208 5.13345 14.065 4.95774 14.25 4.83413C14.435 4.71051 14.6525 4.64453 14.875 4.64453C15.1734 4.64453 15.4595 4.76306 15.6705 4.97404C15.8815 5.18501 16 5.47116 16 5.76953Z" fill="#757575"/>
</svg>
