<svg width="21" height="21" viewBox="0 0 21 21" fill="none" xmlns="http://www.w3.org/2000/svg">
<path d="M18.3034 2.34115C17.1121 1.14819 15.5536 0.391403 13.8794 0.192917C12.2052 -0.00556877 10.513 0.365821 9.07576 1.24716C7.63854 2.12849 6.54018 3.46836 5.95793 5.05056C5.37568 6.63275 5.34349 8.36498 5.86657 9.96771L0.689695 15.1446C0.549801 15.2834 0.438889 15.4486 0.363407 15.6306C0.287925 15.8126 0.249378 16.0078 0.250008 16.2049V18.8946C0.250008 19.2924 0.408043 19.6739 0.689347 19.9552C0.970652 20.2365 1.35218 20.3946 1.75001 20.3946H4.75001C4.94892 20.3946 5.13969 20.3156 5.28034 20.1749C5.42099 20.0343 5.50001 19.8435 5.50001 19.6446V18.1446H7.00001C7.19892 18.1446 7.38969 18.0656 7.53034 17.9249C7.67099 17.7843 7.75001 17.5935 7.75001 17.3946V15.8946H9.25001C9.34853 15.8947 9.4461 15.8753 9.53715 15.8377C9.62819 15.8 9.71093 15.7448 9.78063 15.6752L10.6769 14.778C11.4271 15.022 12.2111 15.1458 13 15.1446H13.0094C14.492 15.1428 15.9408 14.7016 17.1728 13.8768C18.4048 13.052 19.3646 11.8805 19.9312 10.5104C20.4977 9.14032 20.6454 7.63306 20.3557 6.17903C20.066 4.72501 19.3518 3.38948 18.3034 2.34115ZM14.875 7.26958C14.5783 7.26958 14.2883 7.18161 14.0417 7.01679C13.795 6.85197 13.6027 6.6177 13.4892 6.34361C13.3757 6.06952 13.346 5.76792 13.4038 5.47695C13.4617 5.18598 13.6046 4.9187 13.8143 4.70892C14.0241 4.49915 14.2914 4.35628 14.5824 4.29841C14.8733 4.24053 15.1749 4.27023 15.449 4.38376C15.7231 4.4973 15.9574 4.68956 16.1222 4.93623C16.287 5.1829 16.375 5.47291 16.375 5.76958C16.375 6.16741 16.217 6.54894 15.9357 6.83024C15.6544 7.11155 15.2728 7.26958 14.875 7.26958Z" fill="#03C068"/>
</svg>
