<svg width="24" height="41" viewBox="0 0 24 41" fill="none" xmlns="http://www.w3.org/2000/svg">
<path d="M20.97 14.8461L12.72 10.332C12.4996 10.2103 12.2518 10.1464 12 10.1464C11.7482 10.1464 11.5004 10.2103 11.28 10.332L3.03 14.848C2.7944 14.9769 2.59772 15.1667 2.46052 15.3976C2.32331 15.6284 2.25061 15.8919 2.25 16.1605V25.1267C2.25061 25.3953 2.32331 25.6588 2.46052 25.8897C2.59772 26.1205 2.7944 26.3103 3.03 26.4392L11.28 30.9552C11.5004 31.077 11.7482 31.1409 12 31.1409C12.2518 31.1409 12.4996 31.077 12.72 30.9552L20.97 26.4392C21.2056 26.3103 21.4023 26.1205 21.5395 25.8897C21.6767 25.6588 21.7494 25.3953 21.75 25.1267V16.1614C21.7499 15.8924 21.6774 15.6283 21.5402 15.3969C21.403 15.1655 21.206 14.9753 20.97 14.8461ZM12 11.6445L19.5319 15.7695L16.7409 17.2977L9.20813 13.1727L12 11.6445ZM12 19.8945L4.46812 15.7695L7.64625 14.0295L15.1781 18.1545L12 19.8945ZM3.75 17.082L11.25 21.1864V29.2292L3.75 25.1277V17.082ZM20.25 25.1239L12.75 29.2292V21.1902L15.75 19.5486V22.8945C15.75 23.0935 15.829 23.2842 15.9697 23.4249C16.1103 23.5655 16.3011 23.6445 16.5 23.6445C16.6989 23.6445 16.8897 23.5655 17.0303 23.4249C17.171 23.2842 17.25 23.0935 17.25 22.8945V18.7274L20.25 17.082V25.123V25.1239Z" fill="#757575"/>
</svg>
