<svg width="17" height="18" viewBox="0 0 17 18" fill="none" xmlns="http://www.w3.org/2000/svg">
<rect width="17" height="17" rx="8.49998" transform="matrix(1 9.61171e-07 9.61175e-07 1 0 0.5)" fill="#03C068"/>
<path d="M12.1734 7.3296L7.67353 11.8295C7.63433 11.8688 7.58776 11.9 7.53648 11.9213C7.48521 11.9426 7.43023 11.9536 7.3747 11.9536C7.31918 11.9536 7.2642 11.9426 7.21293 11.9213C7.16165 11.9 7.11508 11.8688 7.07588 11.8295L5.10717 9.8608C5.06793 9.82156 5.0368 9.77497 5.01557 9.7237C4.99433 9.67243 4.9834 9.61748 4.9834 9.56198C4.9834 9.50648 4.99433 9.45153 5.01557 9.40026C5.0368 9.34899 5.06793 9.3024 5.10717 9.26316C5.14642 9.22392 5.193 9.19279 5.24428 9.17155C5.29555 9.15031 5.3505 9.13938 5.406 9.13938C5.46149 9.13938 5.51645 9.15031 5.56772 9.17155C5.61899 9.19279 5.66558 9.22392 5.70482 9.26316L7.37506 10.9334L11.5765 6.73266C11.6557 6.65341 11.7632 6.60889 11.8753 6.60889C11.9874 6.60889 12.0949 6.65341 12.1741 6.73266C12.2534 6.81192 12.2979 6.9194 12.2979 7.03148C12.2979 7.14356 12.2534 7.25105 12.1741 7.33031L12.1734 7.3296Z" fill="white"/>
</svg>
