<svg width="24" height="41" viewBox="0 0 24 41" fill="none" xmlns="http://www.w3.org/2000/svg">
<path d="M20.04 15.4645L14.28 11.4345C12.71 10.3345 10.3 10.3945 8.78999 11.5645L3.77999 15.4745C2.77999 16.2545 1.98999 17.8545 1.98999 19.1145V26.0145C1.98999 28.5645 4.05999 30.6445 6.60999 30.6445H17.39C19.94 30.6445 22.01 28.5745 22.01 26.0245V19.2445C22.01 17.8945 21.14 16.2345 20.04 15.4645ZM12.75 26.6445C12.75 27.0545 12.41 27.3945 12 27.3945C11.59 27.3945 11.25 27.0545 11.25 26.6445V23.6445C11.25 23.2345 11.59 22.8945 12 22.8945C12.41 22.8945 12.75 23.2345 12.75 23.6445V26.6445Z" fill="#03C068"/>
</svg>
