<svg width="151" height="29" viewBox="0 0 151 29" fill="none" xmlns="http://www.w3.org/2000/svg">
<g clip-path="url(#clip0_4_2334)">
<path d="M10.0669 20.2985L10.8281 19.5182H25.5801V18.1252H12.1886L12.9499 17.3449H25.5801V15.952H14.3125L15.0738 15.1737H25.5801V13.7787H16.4364L17.1976 13.0005H25.5801V11.6054H18.5581L19.3194 10.8272H25.5801V9.43216H20.6756L21.4433 8.66221H25.5801V7.26718H22.808L23.5693 6.48894H25.5823V4.11904C25.5823 1.96026 23.5522 0.209229 21.0488 0.209229H4.53325C2.0298 0.209229 -0.000251707 1.96026 -0.000251707 4.11904V6.48066H15.5152L14.7518 7.2589H-0.000251707V8.66221H13.3913L12.63 9.44044H-0.000251707V10.8355H11.2674L10.5061 11.6137H-0.000251707V13.0087H9.14352L8.39291 13.7787H-0.000251707V15.1737H7.02177L6.2605 15.952H-0.000251707V17.3553H4.90429L4.12809 18.1252H-0.00878317V19.5182H2.76335L2.00208 20.2985H-0.0109177V21.8819C-0.0109177 24.0407 2.01914 25.7896 4.52259 25.7896H21.036C23.5394 25.7896 25.5695 24.0407 25.5695 21.8819V20.2985H10.0669Z" fill="#03C068"/>
</g>
<path d="M49.2224 20.9C47.2271 21.9403 44.8993 22.4604 42.2389 22.4604C39.3228 22.4604 36.9353 21.5822 35.0764 19.8257C33.2176 18.0521 32.2882 15.7499 32.2882 12.919C32.2882 10.071 33.2176 7.7773 35.0764 6.03783C36.9523 4.28131 39.2972 3.40305 42.111 3.40305C43.5094 3.40305 44.8311 3.62475 46.076 4.06814C47.3209 4.49448 48.3271 5.0743 49.0945 5.80761L46.3318 8.954C45.3597 7.82846 44.004 7.26569 42.2645 7.26569C40.7297 7.26569 39.4592 7.80288 38.453 8.87726C37.4469 9.95163 36.9438 11.2989 36.9438 12.919C36.9438 14.6243 37.4298 16.0057 38.4019 17.063C39.3739 18.1033 40.7297 18.6234 42.4692 18.6234C43.5435 18.6234 44.4559 18.4614 45.2063 18.1374V14.8375H41.7529V11.3074H49.2224V20.9ZM63.5104 10.6935C64.8747 11.9213 65.5569 13.5499 65.5569 15.5793C65.5569 17.6087 64.8747 19.2544 63.5104 20.5163C62.1461 21.7783 60.4664 22.4093 58.4711 22.4093C56.4929 22.4093 54.8216 21.7783 53.4573 20.5163C52.093 19.2544 51.4109 17.6087 51.4109 15.5793C51.4109 13.5499 52.093 11.9213 53.4573 10.6935C54.8216 9.46561 56.4929 8.85168 58.4711 8.85168C60.4664 8.85168 62.1461 9.46561 63.5104 10.6935ZM61.5152 15.5793C61.5152 14.7096 61.2423 13.9507 60.6966 13.3027C60.1509 12.6546 59.409 12.3306 58.4711 12.3306C57.5331 12.3306 56.7998 12.6546 56.2712 13.3027C55.7425 13.9336 55.4782 14.6925 55.4782 15.5793C55.4782 16.4661 55.7425 17.242 56.2712 17.9071C56.8169 18.5552 57.5587 18.8792 58.4967 18.8792C59.4346 18.8792 60.1679 18.5552 60.6966 17.9071C61.2423 17.242 61.5152 16.4661 61.5152 15.5793ZM78.2917 22H66.934V18.7257L72.9198 12.4841H67.1642V9.26096H78.0359V12.4074L71.871 18.7513H78.2917V22ZM87.8004 16.8839V16.4491H87.2632C84.654 16.4491 83.3494 17.0289 83.3494 18.1885C83.3494 18.6319 83.5285 18.9645 83.8866 19.1862C84.2447 19.3908 84.6711 19.4931 85.1656 19.4931C86.0013 19.4931 86.6493 19.2629 87.1097 18.8025C87.5702 18.3249 87.8004 17.6854 87.8004 16.8839ZM82.2239 13.2771L80.1007 11.0004C81.6185 9.56793 83.5114 8.85168 85.7796 8.85168C87.8772 8.85168 89.3779 9.38886 90.2817 10.4632C91.1856 11.5206 91.6375 13.2259 91.6375 15.5793V22H87.8004V20.6442H87.7237C87.4167 21.1558 86.9307 21.5651 86.2656 21.8721C85.6005 22.162 84.8842 22.307 84.1168 22.307C83.3665 22.307 82.6588 22.1961 81.9937 21.9744C81.3456 21.7357 80.7658 21.3008 80.2542 20.6698C79.7426 20.0388 79.4868 19.2544 79.4868 18.3164C79.4868 15.4514 82.2154 14.0189 87.6725 14.0189V13.8143C87.6725 13.2174 87.4593 12.7655 87.033 12.4585C86.6067 12.1345 86.0524 11.9725 85.3703 11.9725C84.2106 11.9725 83.1618 12.4074 82.2239 13.2771ZM108.429 15.5793C108.429 17.4552 107.874 19.0583 106.766 20.3884C105.674 21.7016 104.208 22.3581 102.366 22.3581C101.582 22.3581 100.84 22.2046 100.141 21.8977C99.4414 21.5737 98.8956 21.1388 98.5034 20.5931H98.4522V28.1393H94.2571V9.26096H98.2476V10.8214H98.3243C98.7336 10.2586 99.2879 9.79815 99.9871 9.44002C100.703 9.0819 101.505 8.90284 102.392 8.90284C104.182 8.90284 105.632 9.5594 106.74 10.8725C107.866 12.1686 108.429 13.7375 108.429 15.5793ZM104.361 15.5793C104.361 14.6925 104.097 13.9336 103.568 13.3027C103.04 12.6546 102.306 12.3306 101.368 12.3306C100.465 12.3306 99.7227 12.6632 99.1429 13.3282C98.5802 13.9933 98.2988 14.7522 98.2988 15.6049C98.2988 16.4746 98.5802 17.242 99.1429 17.9071C99.7227 18.5552 100.465 18.8792 101.368 18.8792C102.306 18.8792 103.04 18.5552 103.568 17.9071C104.097 17.2591 104.361 16.4832 104.361 15.5793ZM124.729 15.5793C124.729 17.4552 124.175 19.0583 123.066 20.3884C121.975 21.7016 120.508 22.3581 118.667 22.3581C117.882 22.3581 117.14 22.2046 116.441 21.8977C115.742 21.5737 115.196 21.1388 114.804 20.5931H114.753V28.1393H110.558V9.26096H114.548V10.8214H114.625C115.034 10.2586 115.588 9.79815 116.288 9.44002C117.004 9.0819 117.805 8.90284 118.692 8.90284C120.483 8.90284 121.932 9.5594 123.041 10.8725C124.166 12.1686 124.729 13.7375 124.729 15.5793ZM120.662 15.5793C120.662 14.6925 120.397 13.9336 119.869 13.3027C119.34 12.6546 118.607 12.3306 117.669 12.3306C116.765 12.3306 116.023 12.6632 115.443 13.3282C114.881 13.9933 114.599 14.7522 114.599 15.6049C114.599 16.4746 114.881 17.242 115.443 17.9071C116.023 18.5552 116.765 18.8792 117.669 18.8792C118.607 18.8792 119.34 18.5552 119.869 17.9071C120.397 17.2591 120.662 16.4832 120.662 15.5793ZM130.235 14.1724H135.632C135.632 13.4732 135.41 12.8934 134.967 12.4329C134.541 11.9725 133.927 11.7423 133.125 11.7423C132.341 11.7423 131.676 11.981 131.13 12.4585C130.584 12.936 130.286 13.5073 130.235 14.1724ZM139.495 15.784C139.495 16.2444 139.486 16.577 139.469 16.7816H130.235C130.303 17.4637 130.635 18.035 131.232 18.4955C131.829 18.9559 132.511 19.1862 133.279 19.1862C134.507 19.1862 135.445 18.7428 136.093 17.856L139.009 19.6978C137.764 21.5054 135.837 22.4093 133.228 22.4093C131.232 22.4093 129.561 21.8124 128.214 20.6187C126.884 19.4079 126.219 17.7622 126.219 15.6816C126.219 13.6352 126.867 11.9895 128.163 10.7446C129.476 9.48266 131.121 8.85168 133.1 8.85168C135.01 8.85168 136.553 9.47413 137.73 10.719C138.906 11.9469 139.495 13.6352 139.495 15.784ZM150.026 9.00516L149.847 12.6887C149.523 12.6035 149.165 12.5608 148.773 12.5608C147.767 12.5608 147.016 12.8763 146.522 13.5073C146.027 14.1212 145.78 14.7693 145.78 15.4514V22H141.585V9.26096H145.627V11.1028H145.678C146.002 10.4377 146.471 9.909 147.085 9.51677C147.699 9.10748 148.381 8.90284 149.131 8.90284C149.54 8.90284 149.839 8.93694 150.026 9.00516Z" fill="#03C068"/>
<defs>
<clipPath id="clip0_4_2334">
<rect width="25.5804" height="25.5804" fill="white" transform="translate(0 0.209595)"/>
</clipPath>
</defs>
</svg>
