<svg width="21" height="20" viewBox="0 0 21 20" fill="none" xmlns="http://www.w3.org/2000/svg">
<g clip-path="url(#clip0_4_2329)">
<path d="M10.7499 8.18179V12.0545H16.1317C15.8954 13.3 15.1862 14.3546 14.1226 15.0636L17.368 17.5818C19.2589 15.8364 20.3498 13.2728 20.3498 10.2273C20.3498 9.51827 20.2862 8.83638 20.168 8.1819L10.7499 8.18179Z" fill="black"/>
<path d="M5.14555 11.9034L4.41358 12.4637L1.82263 14.4818C3.46808 17.7454 6.84056 20 10.7496 20C13.4496 20 15.7132 19.1091 17.3677 17.5819L14.1223 15.0636C13.2314 15.6636 12.095 16.0273 10.7496 16.0273C8.14963 16.0273 5.94061 14.2728 5.14964 11.9091L5.14555 11.9034Z" fill="black"/>
<path d="M1.82265 5.51818C1.14087 6.86358 0.75 8.38178 0.75 9.99994C0.75 11.6181 1.14087 13.1363 1.82265 14.4817C1.82265 14.4907 5.14998 11.8999 5.14998 11.8999C4.94998 11.2999 4.83177 10.6636 4.83177 9.99983C4.83177 9.33611 4.94998 8.69979 5.14998 8.09979L1.82265 5.51818Z" fill="black"/>
<path d="M10.7498 3.98182C12.2226 3.98182 13.5316 4.49089 14.5771 5.47272L17.4407 2.60912C15.7043 0.990971 13.4499 0 10.7498 0C6.84076 0 3.46808 2.24545 1.82263 5.51819L5.14986 8.10001C5.94072 5.73635 8.14984 3.98182 10.7498 3.98182Z" fill="black"/>
</g>
<defs>
<clipPath id="clip0_4_2329">
<rect width="20" height="20" fill="white" transform="translate(0.75)"/>
</clipPath>
</defs>
</svg>
