<svg width="24" height="25" viewBox="0 0 24 25" fill="none" xmlns="http://www.w3.org/2000/svg">
<path d="M20.97 6.84611L12.72 2.33205C12.4996 2.21025 12.2518 2.14636 12 2.14636C11.7482 2.14636 11.5004 2.21025 11.28 2.33205L3.03 6.84799C2.7944 6.9769 2.59772 7.1667 2.46052 7.39757C2.32331 7.62844 2.25061 7.89192 2.25 8.16049V17.1267C2.25061 17.3953 2.32331 17.6588 2.46052 17.8897C2.59772 18.1205 2.7944 18.3103 3.03 18.4392L11.28 22.9552C11.5004 23.077 11.7482 23.1409 12 23.1409C12.2518 23.1409 12.4996 23.077 12.72 22.9552L20.97 18.4392C21.2056 18.3103 21.4023 18.1205 21.5395 17.8897C21.6767 17.6588 21.7494 17.3953 21.75 17.1267V8.16142C21.7499 7.89238 21.6774 7.62832 21.5402 7.39691C21.403 7.16549 21.206 6.97525 20.97 6.84611ZM12 3.64455L19.5319 7.76955L16.7409 9.29767L9.20813 5.17267L12 3.64455ZM12 11.8945L4.46812 7.76955L7.64625 6.02955L15.1781 10.1545L12 11.8945ZM3.75 9.08205L11.25 13.1864V21.2292L3.75 17.1277V9.08205ZM20.25 17.1239L12.75 21.2292V13.1902L15.75 11.5486V14.8945C15.75 15.0935 15.829 15.2842 15.9697 15.4249C16.1103 15.5655 16.3011 15.6445 16.5 15.6445C16.6989 15.6445 16.8897 15.5655 17.0303 15.4249C17.171 15.2842 17.25 15.0935 17.25 14.8945V10.7274L20.25 9.08205V17.123V17.1239Z" fill="#757575"/>
</svg>
