<svg width="24" height="25" viewBox="0 0 24 25" fill="none" xmlns="http://www.w3.org/2000/svg">
<path d="M20.97 6.84599L12.72 2.33193C12.4996 2.21013 12.2518 2.14624 12 2.14624C11.7482 2.14624 11.5004 2.21013 11.28 2.33193L3.03 6.84786C2.7944 6.97677 2.59772 7.16658 2.46052 7.39745C2.32331 7.62832 2.25061 7.8918 2.25 8.16036V17.1266C2.25061 17.3952 2.32331 17.6587 2.46052 17.8895C2.59772 18.1204 2.7944 18.3102 3.03 18.4391L11.28 22.9551C11.5004 23.0768 11.7482 23.1407 12 23.1407C12.2518 23.1407 12.4996 23.0768 12.72 22.9551L20.97 18.4391C21.2056 18.3102 21.4023 18.1204 21.5395 17.8895C21.6767 17.6587 21.7494 17.3952 21.75 17.1266V8.1613C21.7499 7.89226 21.6774 7.6282 21.5402 7.39678C21.403 7.16537 21.206 6.97513 20.97 6.84599ZM12 3.64443L19.5328 7.76943L16.7409 9.29661L9.20813 5.17161L12 3.64443ZM12 11.8944L4.46719 7.76943L7.64625 6.02849L15.1791 10.1535L12 11.8944ZM20.25 17.1304L12.75 21.2357V13.191L15.75 11.5494V14.8944C15.75 15.0933 15.829 15.2841 15.9697 15.4248C16.1103 15.5654 16.3011 15.6444 16.5 15.6444C16.6989 15.6444 16.8897 15.5654 17.0303 15.4248C17.171 15.2841 17.25 15.0933 17.25 14.8944V10.7282L20.25 9.08661V17.1266V17.1304Z" fill="#03C068"/>
</svg>
