<svg width="45" height="44" viewBox="0 0 45 44" fill="none" xmlns="http://www.w3.org/2000/svg">
<rect width="44" height="44" rx="22" transform="matrix(1 9.61171e-07 9.61175e-07 1 0.5 0)" fill="#03C068"/>
<path d="M30 22C30 22.1658 29.9342 22.3247 29.8169 22.442C29.6997 22.5592 29.5408 22.625 29.375 22.625L23.125 22.625L23.125 28.875C23.125 29.0408 23.0592 29.1997 22.942 29.3169C22.8247 29.4342 22.6658 29.5 22.5 29.5C22.3343 29.5 22.1753 29.4342 22.0581 29.3169C21.9409 29.1997 21.875 29.0408 21.875 28.875L21.875 22.625L15.625 22.625C15.4592 22.625 15.3003 22.5592 15.1831 22.4419C15.0659 22.3247 15 22.1658 15 22C15 21.8342 15.0659 21.6753 15.1831 21.5581C15.3003 21.4408 15.4592 21.375 15.625 21.375L21.875 21.375L21.875 15.125C21.875 14.9592 21.9408 14.8003 22.0581 14.6831C22.1753 14.5659 22.3342 14.5 22.5 14.5C22.6658 14.5 22.8247 14.5659 22.9419 14.6831C23.0592 14.8003 23.125 14.9592 23.125 15.125L23.125 21.375L29.375 21.375C29.5408 21.375 29.6997 21.4409 29.8169 21.5581C29.9342 21.6753 30 21.8343 30 22Z" fill="white"/>
</svg>
