<svg width="44" height="44" viewBox="0 0 44 44" fill="none" xmlns="http://www.w3.org/2000/svg">
<rect width="44" height="44" rx="22" transform="matrix(1 9.61171e-07 9.61175e-07 1 0 0)" fill="#03C068"/>
<path d="M30.1632 18.2884L20.1632 28.2884C20.0761 28.3758 19.9727 28.4451 19.8587 28.4925C19.7447 28.5398 19.6226 28.5641 19.4992 28.5641C19.3758 28.5641 19.2536 28.5398 19.1397 28.4925C19.0257 28.4451 18.9222 28.3758 18.8351 28.2884L14.4601 23.9134C14.3729 23.8262 14.3037 23.7227 14.2565 23.6087C14.2093 23.4948 14.1851 23.3727 14.1851 23.2493C14.1851 23.126 14.2093 23.0039 14.2565 22.8899C14.3037 22.776 14.3729 22.6725 14.4601 22.5853C14.5473 22.4981 14.6509 22.4289 14.7648 22.3817C14.8787 22.3345 15.0009 22.3102 15.1242 22.3102C15.2475 22.3102 15.3696 22.3345 15.4836 22.3817C15.5975 22.4289 15.701 22.4981 15.7882 22.5853L19.5 26.297L28.8367 16.9618C29.0128 16.7857 29.2517 16.6868 29.5007 16.6868C29.7498 16.6868 29.9887 16.7857 30.1648 16.9618C30.3409 17.138 30.4399 17.3768 30.4399 17.6259C30.4399 17.875 30.3409 18.1138 30.1648 18.29L30.1632 18.2884Z" fill="white"/>
</svg>
