<svg width="13" height="13" viewBox="0 0 13 13" fill="none" xmlns="http://www.w3.org/2000/svg">
<path d="M12 2H9.5V1.5C9.5 1.10218 9.34196 0.720644 9.06066 0.43934C8.77936 0.158035 8.39782 0 8 0H5C4.60218 0 4.22064 0.158035 3.93934 0.43934C3.65804 0.720644 3.5 1.10218 3.5 1.5V2H1C0.867392 2 0.740215 2.05268 0.646447 2.14645C0.552679 2.24021 0.5 2.36739 0.5 2.5C0.5 2.63261 0.552679 2.75979 0.646447 2.85355C0.740215 2.94732 0.867392 3 1 3H1.5V12C1.5 12.2652 1.60536 12.5196 1.79289 12.7071C1.98043 12.8946 2.23478 13 2.5 13H10.5C10.7652 13 11.0196 12.8946 11.2071 12.7071C11.3946 12.5196 11.5 12.2652 11.5 12V3H12C12.1326 3 12.2598 2.94732 12.3536 2.85355C12.4473 2.75979 12.5 2.63261 12.5 2.5C12.5 2.36739 12.4473 2.24021 12.3536 2.14645C12.2598 2.05268 12.1326 2 12 2ZM4.5 1.5C4.5 1.36739 4.55268 1.24021 4.64645 1.14645C4.74021 1.05268 4.86739 1 5 1H8C8.13261 1 8.25979 1.05268 8.35355 1.14645C8.44732 1.24021 8.5 1.36739 8.5 1.5V2H4.5V1.5ZM10.5 12H2.5V3H10.5V12ZM5.5 5.5V9.5C5.5 9.63261 5.44732 9.75979 5.35355 9.85355C5.25979 9.94732 5.13261 10 5 10C4.86739 10 4.74021 9.94732 4.64645 9.85355C4.55268 9.75979 4.5 9.63261 4.5 9.5V5.5C4.5 5.36739 4.55268 5.24021 4.64645 5.14645C4.74021 5.05268 4.86739 5 5 5C5.13261 5 5.25979 5.05268 5.35355 5.14645C5.44732 5.24021 5.5 5.36739 5.5 5.5ZM8.5 5.5V9.5C8.5 9.63261 8.44732 9.75979 8.35355 9.85355C8.25979 9.94732 8.13261 10 8 10C7.86739 10 7.74021 9.94732 7.64645 9.85355C7.55268 9.75979 7.5 9.63261 7.5 9.5V5.5C7.5 5.36739 7.55268 5.24021 7.64645 5.14645C7.74021 5.05268 7.86739 5 8 5C8.13261 5 8.25979 5.05268 8.35355 5.14645C8.44732 5.24021 8.5 5.36739 8.5 5.5Z" fill="#ED2115"/>
</svg>
