<svg width="23" height="23" viewBox="0 0 23 23" fill="none" xmlns="http://www.w3.org/2000/svg">
<g clip-path="url(#clip0_387_2540)">
<path d="M8.76741 17.6792L9.43043 16.9996H22.2786V15.7864H10.6153L11.2784 15.1068H22.2786V13.8937H12.4651L13.1281 13.2159H22.2786V12.0009H14.3149L14.9779 11.3231H22.2786V10.1081H16.1628L16.8258 9.43026H22.2786V8.21527H18.007L18.6756 7.54468H22.2786V6.32969H19.8642L20.5273 5.65189H22.2805V3.58784C22.2805 1.70767 20.5124 0.182617 18.332 0.182617H3.94795C1.76758 0.182617 -0.000476179 1.70767 -0.000476179 3.58784V5.64468H13.5126L12.8477 6.32248H-0.000476179V7.54468H11.6628L10.9998 8.22248H-0.000476179V9.43748H9.81302L9.14999 10.1153H-0.000476179V11.3303H7.96323L7.3095 12.0009H-0.000476179V13.2159H6.11531L5.45229 13.8937H-0.000476179V15.1159H4.2711L3.59508 15.7864H-0.0079066V16.9996H2.40647L1.74344 17.6792H-0.00976562V19.0583C-0.00976562 20.9384 1.7583 22.4617 3.93866 22.4617H18.3209C20.5013 22.4617 22.2693 20.9384 22.2693 19.0583V17.6792H8.76741Z" fill="#03C068"/>
</g>
<defs>
<clipPath id="clip0_387_2540">
<rect width="22.2791" height="22.2791" fill="white" transform="translate(0 0.182617)"/>
</clipPath>
</defs>
</svg>
