<svg width="23" height="24" viewBox="0 0 23 24" fill="none" xmlns="http://www.w3.org/2000/svg">
<g clip-path="url(#clip0_121_12715)">
<path d="M8.76789 18.3575L9.43092 17.6779H22.2791V16.4647H10.6158L11.2788 15.7851H22.2791V14.5719H12.4656L13.1286 13.8941H22.2791V12.6791H14.3154L14.9784 12.0013H22.2791V10.7863H16.1633L16.8263 10.1085H22.2791V8.8935H18.0075L18.6761 8.22291H22.2791V7.00791H19.8647L20.5277 6.33011H22.2809V4.26607C22.2809 2.38589 20.5129 0.86084 18.3325 0.86084H3.94844C1.76807 0.86084 1.21025e-05 2.38589 1.21025e-05 4.26607V6.3229H13.5131L12.8482 7.0007H1.21025e-05V8.22291H11.6633L11.0003 8.90071H1.21025e-05V10.1157H9.81351L9.15048 10.7935H1.21025e-05V12.0085H7.96372L7.30998 12.6791H1.21025e-05V13.8941H6.1158L5.45278 14.5719H1.21025e-05V15.7941H4.27159L3.59557 16.4647H-0.00741832V17.6779H2.40695L1.74393 18.3575H-0.00927734V19.7365C-0.00927734 21.6167 1.75879 23.1399 3.93915 23.1399H18.3214C20.5017 23.1399 22.2698 21.6167 22.2698 19.7365V18.3575H8.76789Z" fill="#03C068"/>
</g>
<defs>
<clipPath id="clip0_121_12715">
<rect width="22.2791" height="22.2791" fill="white" transform="translate(0 0.860596)"/>
</clipPath>
</defs>
</svg>
