<svg width="51" height="51" viewBox="0 0 51 51" fill="none" xmlns="http://www.w3.org/2000/svg">
<g opacity="0.5">
<path d="M6.85645 35.373H40.4502L45.3207 37.3712H8.97948L6.85645 35.373Z" fill="#E2E2E2"/>
<path d="M32.61 19.1919V29.4844H43.0737V24.698C43.0737 24.1827 42.9185 23.6877 42.6404 23.2909L42.6404 23.2909L39.5196 18.838L39.5196 18.838C39.1334 18.287 38.5555 17.9848 37.9643 17.9848H33.6471C33.1259 17.9848 32.61 18.4711 32.61 19.1919Z" fill="#03C068" stroke="#1F1F1F" stroke-width="1.10651"/>
<path d="M8.98143 32.4547H43.1637C43.298 32.4547 43.5532 32.2935 43.5532 31.8992V30.0135H8.59211C8.59201 30.0153 8.59196 30.0172 8.59196 30.0191V31.8993C8.59196 32.2935 8.84702 32.4547 8.98143 32.4547Z" fill="#EBFFF0" stroke="#1F1F1F" stroke-width="1.10651"/>
<path d="M40.8072 23.4233L38.3225 19.8803H35.4274V23.4233H40.8072Z" fill="#F6F6F6" stroke="#1F1F1F" stroke-width="1.10651"/>
<path d="M42.6952 27.7344H43.0737V26.3709H42.6952C42.5638 26.3709 42.4574 26.4774 42.4574 26.6087V27.4965C42.4574 27.628 42.5639 27.7344 42.6952 27.7344Z" fill="#03C068" stroke="#1F1F1F" stroke-width="1.10651"/>
<path d="M35.0408 33.8942C35.0408 35.46 36.3101 36.7292 37.8759 36.7292C39.4417 36.7292 40.7109 35.46 40.7109 33.8942C40.7109 32.3284 39.4417 31.0591 37.8759 31.0591C36.3101 31.0591 35.0408 32.3285 35.0408 33.8942ZM24.2687 31.0592C25.8345 31.0592 27.1038 32.3285 27.1038 33.8943C27.1038 35.46 25.8345 36.7293 24.2687 36.7293C22.7029 36.7293 21.4336 35.46 21.4336 33.8943C21.4336 32.3285 22.703 31.0592 24.2687 31.0592ZM16.3542 31.0592C17.92 31.0592 19.1893 32.3285 19.1893 33.8943C19.1893 35.46 17.92 36.7293 16.3542 36.7293C14.7885 36.7293 13.5192 35.46 13.5192 33.8943C13.5192 32.3285 14.7885 31.0592 16.3542 31.0592Z" fill="#141414"/>
<path d="M34.998 33.8375C34.998 35.4346 36.3302 36.7293 37.9736 36.7293C39.617 36.7293 40.9492 35.4346 40.9492 33.8375C40.9492 32.2405 39.617 30.9458 37.9736 30.9458C36.3302 30.9458 34.998 32.2405 34.998 33.8375Z" fill="#1F1F1F"/>
<path d="M35.8536 33.8375C35.8536 34.9983 36.8029 35.9393 37.9738 35.9393C39.1448 35.9393 40.0941 34.9983 40.0941 33.8375C40.0941 32.6768 39.1448 31.7358 37.9738 31.7358C36.8029 31.7358 35.8536 32.6768 35.8536 33.8375Z" fill="#EEEEEE"/>
<path d="M37.1404 33.8375C37.1404 34.2938 37.5136 34.6637 37.9739 34.6637C38.4342 34.6637 38.8074 34.2938 38.8074 33.8375C38.8074 33.3812 38.4342 33.0113 37.9739 33.0113C37.5136 33.0113 37.1404 33.3812 37.1404 33.8375Z" fill="#1F1F1F"/>
<path d="M21.4144 33.8943C21.4144 35.5019 22.7264 36.8051 24.3449 36.8051C25.9634 36.8051 27.2754 35.5019 27.2754 33.8943C27.2754 32.2867 25.9634 30.9835 24.3449 30.9835C22.7264 30.9835 21.4144 32.2867 21.4144 33.8943Z" fill="#1F1F1F"/>
<path d="M22.2571 33.8943C22.2571 35.0628 23.1919 36.01 24.3451 36.01C25.4983 36.01 26.4332 35.0628 26.4332 33.8943C26.4332 32.7259 25.4983 31.7787 24.3451 31.7787C23.1919 31.7787 22.2571 32.7259 22.2571 33.8943Z" fill="#EEEEEE"/>
<path d="M23.5244 33.8943C23.5244 34.3536 23.8919 34.726 24.3452 34.726C24.7985 34.726 25.166 34.3536 25.166 33.8943C25.166 33.435 24.7985 33.0627 24.3452 33.0627C23.8919 33.0627 23.5244 33.435 23.5244 33.8943Z" fill="#1F1F1F"/>
<path d="M13.4476 33.8754C13.4476 35.4934 14.7596 36.8051 16.3781 36.8051C17.9966 36.8051 19.3086 35.4934 19.3086 33.8754C19.3086 32.2574 17.9966 30.9458 16.3781 30.9458C14.7596 30.9458 13.4476 32.2574 13.4476 33.8754Z" fill="#1F1F1F"/>
<path d="M14.2903 33.8754C14.2903 35.0514 15.2251 36.0048 16.3783 36.0048C17.5315 36.0048 18.4664 35.0514 18.4664 33.8754C18.4664 32.6995 17.5315 31.7461 16.3783 31.7461C15.2251 31.7461 14.2903 32.6995 14.2903 33.8754Z" fill="#EEEEEE"/>
<path d="M15.5576 33.8754C15.5576 34.3377 15.9251 34.7125 16.3784 34.7125C16.8317 34.7125 17.1992 34.3377 17.1992 33.8754C17.1992 33.4132 16.8317 33.0384 16.3784 33.0384C15.9251 33.0384 15.5576 33.4132 15.5576 33.8754Z" fill="#1F1F1F"/>
<rect x="35.0889" y="24.7301" width="2.3651" height="0.591275" rx="0.295637" fill="#1F1F1F"/>
<rect x="8.44629" y="23.6436" width="22.8031" height="5.22061" fill="#1F1F1F"/>
<rect x="30.0176" y="19.3271" width="1.23229" height="9.53714" fill="#1F1F1F"/>
<rect x="6.85645" y="31.1437" width="1.59064" height="0.982523" rx="0.491261" fill="#1F1F1F"/>
<path d="M37.8223 20.1799C37.8917 20.1237 37.99 20.1216 38.0599 20.1771C38.2055 20.293 38.4496 20.4977 38.5939 20.6759C38.7388 20.855 38.8922 21.1422 38.9772 21.3113C39.0174 21.3912 38.995 21.4874 38.9254 21.5437C38.8074 21.6393 38.6252 21.5701 38.5855 21.4235C38.5359 21.2405 38.4582 21.0238 38.3446 20.8838C38.2317 20.7446 38.0371 20.6241 37.8692 20.5379C37.7339 20.4685 37.7041 20.2755 37.8223 20.1799Z" fill="#F6F6F6"/>
</g>
</svg>
