<svg width="38" height="38" viewBox="0 0 38 38" fill="none" xmlns="http://www.w3.org/2000/svg">
<g opacity="0.5">
<path d="M7.19727 27.5964H28.2265L31.2753 28.8472H8.52625L7.19727 27.5964Z" fill="#E2E2E2"/>
<g clip-path="url(#clip0_147_900)">
<path d="M8.67428 23.8667H22.5688V12.6959C22.5688 11.7465 21.7992 10.9768 20.8498 10.9768H10.3933C9.44386 10.9768 8.67424 11.7465 8.67424 12.6959L8.67428 23.8667Z" fill="#EBFFF0" stroke="#1F1F1F" stroke-width="0.809657"/>
<path d="M29.5391 20.0745L29.5391 20.0745L27.488 17.2871L27.488 17.287C27.2449 16.9565 26.8767 16.7703 26.4942 16.7703H23.6568C23.323 16.7703 23.0164 17.062 23.0164 17.4674V23.8519H29.811V20.9141C29.811 20.6078 29.7142 20.3124 29.5391 20.0745Z" fill="#03C068" stroke="#1F1F1F" stroke-width="0.809657"/>
<path d="M8.53406 25.7112H30.1091C30.1395 25.7112 30.1808 25.6978 30.2225 25.6493C30.2648 25.5998 30.2993 25.5207 30.2993 25.422V24.3001H8.34387V25.422C8.34387 25.5208 8.37829 25.5999 8.42064 25.6493C8.46226 25.6978 8.50361 25.7112 8.53406 25.7112Z" fill="#EBFFF0" stroke="#1F1F1F" stroke-width="0.809657"/>
<path d="M25.1424 20.0577H28.3391L26.8658 17.9568H25.1424V20.0577ZM26.8081 17.8747C26.8081 17.8747 26.8082 17.8747 26.8082 17.8747L26.8081 17.8747Z" fill="#F6F6F6" stroke="#1F1F1F" stroke-width="0.809657"/>
<path d="M29.6325 23.0455H30.1002V21.7307H29.6325C29.4229 21.7307 29.253 21.9005 29.253 22.1102V22.6659C29.253 22.8756 29.4229 23.0455 29.6325 23.0455Z" fill="#F6F6F6" stroke="#1F1F1F" stroke-width="0.23133"/>
<path d="M24.8422 26.6707C24.8422 27.6508 25.6368 28.4454 26.6169 28.4454C27.5971 28.4454 28.3916 27.6508 28.3916 26.6707C28.3916 25.6905 27.5971 24.896 26.6169 24.896C25.6368 24.896 24.8422 25.6906 24.8422 26.6707ZM18.099 24.896C19.0792 24.896 19.8737 25.6906 19.8737 26.6707C19.8737 27.6509 19.0792 28.4454 18.099 28.4454C17.1189 28.4454 16.3243 27.6509 16.3243 26.6707C16.3243 25.6906 17.1189 24.896 18.099 24.896ZM13.1447 24.896C14.1248 24.896 14.9194 25.6906 14.9194 26.6707C14.9194 27.6509 14.1248 28.4454 13.1447 28.4454C12.1645 28.4454 11.37 27.6509 11.37 26.6707C11.37 25.6906 12.1645 24.896 13.1447 24.896Z" fill="#141414"/>
<path d="M24.7895 26.6353C24.7895 27.635 25.6291 28.4454 26.6648 28.4454C27.7004 28.4454 28.54 27.635 28.54 26.6353C28.54 25.6355 27.7004 24.8251 26.6648 24.8251C25.6291 24.8251 24.7895 25.6355 24.7895 26.6353Z" fill="#1F1F1F"/>
<path d="M25.3287 26.6353C25.3287 27.3619 25.927 27.9509 26.6649 27.9509C27.4029 27.9509 28.0011 27.3619 28.0011 26.6353C28.0011 25.9086 27.4029 25.3196 26.6649 25.3196C25.927 25.3196 25.3287 25.9086 25.3287 26.6353Z" fill="#EEEEEE"/>
<path d="M26.1397 26.6352C26.1397 26.9209 26.3749 27.1524 26.665 27.1524C26.955 27.1524 27.1902 26.9209 27.1902 26.6352C27.1902 26.3496 26.955 26.1181 26.665 26.1181C26.3749 26.1181 26.1397 26.3496 26.1397 26.6352Z" fill="#1F1F1F"/>
<path d="M16.3088 26.6707C16.3088 27.69 17.1517 28.5163 18.1915 28.5163C19.2313 28.5163 20.0742 27.69 20.0742 26.6707C20.0742 25.6514 19.2313 24.8251 18.1915 24.8251C17.1517 24.8251 16.3088 25.6514 16.3088 26.6707Z" fill="#1F1F1F"/>
<path d="M16.8502 26.6707C16.8502 27.4115 17.4508 28.0121 18.1917 28.0121C18.9326 28.0121 19.5332 27.4115 19.5332 26.6707C19.5332 25.9298 18.9326 25.3293 18.1917 25.3293C17.4508 25.3293 16.8502 25.9298 16.8502 26.6707Z" fill="#EEEEEE"/>
<path d="M17.6644 26.6707C17.6644 26.9619 17.9005 27.198 18.1917 27.198C18.483 27.198 18.7191 26.9619 18.7191 26.6707C18.7191 26.3794 18.483 26.1434 18.1917 26.1434C17.9005 26.1434 17.6644 26.3794 17.6644 26.6707Z" fill="#1F1F1F"/>
<path d="M11.3252 26.6708C11.3252 27.6901 12.1466 28.5164 13.1597 28.5164C14.1728 28.5164 14.9941 27.6901 14.9941 26.6708C14.9941 25.6515 14.1728 24.8252 13.1597 24.8252C12.1466 24.8252 11.3252 25.6515 11.3252 26.6708Z" fill="#1F1F1F"/>
<path d="M11.8527 26.6708C11.8527 27.4116 12.4379 28.0122 13.1598 28.0122C13.8817 28.0122 14.4669 27.4116 14.4669 26.6708C14.4669 25.9299 13.8817 25.3294 13.1598 25.3294C12.4379 25.3294 11.8527 25.9299 11.8527 26.6708Z" fill="#EEEEEE"/>
<path d="M12.646 26.6708C12.646 26.962 12.8761 27.1981 13.1599 27.1981C13.4437 27.1981 13.6737 26.962 13.6737 26.6708C13.6737 26.3796 13.4437 26.1435 13.1599 26.1435C12.8761 26.1435 12.646 26.3796 12.646 26.6708Z" fill="#1F1F1F"/>
<path d="M26.6757 18.1877C26.7145 18.1562 26.7686 18.1516 26.8109 18.1782C26.8882 18.227 27.0098 18.3107 27.0757 18.3921C27.1418 18.4738 27.2 18.6127 27.2326 18.6997C27.2502 18.7468 27.2345 18.7991 27.1954 18.8307V18.8307C27.1125 18.8978 26.9819 18.8326 26.9634 18.7276C26.9509 18.6571 26.9294 18.5887 26.8925 18.5433C26.856 18.4983 26.7941 18.4632 26.7283 18.4366C26.6293 18.3965 26.5927 18.2549 26.6757 18.1877V18.1877Z" fill="#F6F6F6"/>
<rect x="9.31445" y="16.6184" width="12.6122" height="0.549718" fill="#1F1F1F"/>
<rect x="9.31445" y="13.9066" width="12.6122" height="0.549719" fill="#1F1F1F"/>
<rect x="9.31445" y="19.3304" width="12.6122" height="0.549719" fill="#1F1F1F"/>
<rect x="9.31445" y="22.1133" width="12.6122" height="0.549718" fill="#1F1F1F"/>
</g>
</g>
<defs>
<clipPath id="clip0_147_900">
<rect width="22.5779" height="22.5779" fill="white" transform="matrix(-1 0 0 1 30.7012 7.52759)"/>
</clipPath>
</defs>
</svg>
