<svg width="24" height="41" viewBox="0 0 24 41" fill="none" xmlns="http://www.w3.org/2000/svg">
<path d="M16.7024 25.1445H10.4361C10.3226 25.8163 10.058 26.4535 9.66237 27.0081C9.26672 27.5627 8.7503 28.0203 8.15205 28.3462C7.55381 28.6722 6.88937 28.8581 6.20883 28.8898C5.52829 28.9216 4.84942 28.7984 4.22342 28.5296C3.59742 28.2608 3.04062 27.8533 2.59502 27.338C2.14943 26.8226 1.82666 26.2128 1.65106 25.5546C1.47547 24.8963 1.45163 24.2068 1.58134 23.538C1.71105 22.8691 1.99093 22.2385 2.39986 21.6936C2.51934 21.5345 2.69713 21.4293 2.89413 21.4013C3.09113 21.3732 3.2912 21.4246 3.45033 21.5441C3.60946 21.6635 3.71462 21.8413 3.74266 22.0383C3.7707 22.2353 3.71934 22.4354 3.59986 22.5945C3.2085 23.1128 2.99775 23.7451 2.99986 24.3945C2.99986 25.1902 3.31593 25.9532 3.87854 26.5159C4.44115 27.0785 5.20421 27.3945 5.99986 27.3945C6.79551 27.3945 7.55858 27.0785 8.12119 26.5159C8.68379 25.9532 8.99986 25.1902 8.99986 24.3945C8.99986 24.1956 9.07888 24.0049 9.21953 23.8642C9.36019 23.7236 9.55095 23.6445 9.74986 23.6445H16.7024C16.8675 23.3586 17.1223 23.1351 17.4274 23.0087C17.7324 22.8824 18.0707 22.8602 18.3896 22.9456C18.7086 23.0311 18.9904 23.2194 19.1914 23.4814C19.3924 23.7434 19.5014 24.0643 19.5014 24.3945C19.5014 24.7247 19.3924 25.0457 19.1914 25.3077C18.9904 25.5696 18.7086 25.758 18.3896 25.8434C18.0707 25.9289 17.7324 25.9067 17.4274 25.7804C17.1223 25.654 16.8675 25.4305 16.7024 25.1445ZM5.99986 25.8945C6.25966 25.8946 6.51503 25.8272 6.74096 25.699C6.96689 25.5707 7.15563 25.386 7.2887 25.1628C7.42176 24.9397 7.4946 24.6858 7.50006 24.4261C7.50552 24.1663 7.44343 23.9096 7.31986 23.6811L10.6733 18.2305C10.7774 18.0611 10.81 17.8574 10.7639 17.664C10.7179 17.4707 10.5969 17.3035 10.4277 17.1992C10.0268 16.9524 9.68964 16.6148 9.44343 16.2136C9.19723 15.8123 9.0489 15.3588 9.01044 14.8896C8.97198 14.4205 9.04447 13.9488 9.22204 13.5128C9.39962 13.0769 9.6773 12.6888 10.0326 12.38C10.388 12.0713 10.811 11.8505 11.2674 11.7354C11.7239 11.6204 12.2011 11.6144 12.6603 11.718C13.1195 11.8215 13.5479 12.0317 13.9108 12.3315C14.2738 12.6312 14.5611 13.0122 14.7496 13.4436C14.8291 13.626 14.9779 13.7693 15.1631 13.842C15.3483 13.9147 15.5548 13.9108 15.7372 13.8313C15.9196 13.7517 16.0629 13.6029 16.1356 13.4177C16.2083 13.2325 16.2044 13.026 16.1249 12.8436C15.8547 12.226 15.4492 11.677 14.9384 11.2371C14.4276 10.7973 13.8245 10.4778 13.1736 10.3023C12.5228 10.1268 11.8408 10.0997 11.1781 10.2232C10.5154 10.3466 9.88886 10.6174 9.34483 11.0154C8.8008 11.4135 8.35315 11.9287 8.03495 12.523C7.71676 13.1172 7.53614 13.7754 7.50644 14.4489C7.47675 15.1223 7.59873 15.7938 7.86339 16.4138C8.12804 17.0338 8.52861 17.5864 9.03549 18.0308L6.04111 22.8945C6.02705 22.8945 6.01393 22.8945 5.99986 22.8945C5.60204 22.8945 5.22051 23.0526 4.9392 23.3339C4.6579 23.6152 4.49986 23.9967 4.49986 24.3945C4.49986 24.7924 4.6579 25.1739 4.9392 25.4552C5.22051 25.7365 5.60204 25.8945 5.99986 25.8945ZM17.9999 19.8945C17.4216 19.8946 16.8487 20.0057 16.3124 20.2217L13.3199 15.357C13.4758 15.0681 13.5327 14.7359 13.4817 14.4116C13.4307 14.0872 13.2746 13.7885 13.0375 13.5613C12.8004 13.3342 12.4953 13.1911 12.169 13.1541C11.8428 13.1171 11.5134 13.1881 11.2314 13.3564C10.9494 13.5246 10.7304 13.7807 10.608 14.0854C10.4856 14.3901 10.4666 14.7266 10.5538 15.0431C10.6411 15.3597 10.8298 15.6389 11.091 15.8378C11.3522 16.0368 11.6715 16.1445 11.9999 16.1445H12.0411L15.3955 21.5961C15.4999 21.7652 15.6671 21.8859 15.8605 21.9318C16.0538 21.9777 16.2575 21.9449 16.4267 21.8408C16.8216 21.5974 17.2675 21.4488 17.7295 21.4069C18.1915 21.3649 18.6569 21.4306 19.0891 21.5988C19.5214 21.7671 19.9088 22.0333 20.2208 22.3765C20.5329 22.7197 20.761 23.1306 20.8875 23.5769C21.0139 24.0232 21.0351 24.4928 20.9494 24.9487C20.8637 25.4046 20.6735 25.8344 20.3937 26.2043C20.1138 26.5743 19.752 26.8743 19.3367 27.0808C18.9213 27.2873 18.4637 27.3947 17.9999 27.3945C17.801 27.3945 17.6102 27.4736 17.4695 27.6142C17.3289 27.7549 17.2499 27.9456 17.2499 28.1445C17.2499 28.3435 17.3289 28.5342 17.4695 28.6749C17.6102 28.8155 17.801 28.8945 17.9999 28.8945C19.1933 28.8945 20.3379 28.4204 21.1818 27.5765C22.0258 26.7326 22.4999 25.588 22.4999 24.3945C22.4999 23.2011 22.0258 22.0565 21.1818 21.2126C20.3379 20.3686 19.1933 19.8945 17.9999 19.8945Z" fill="#757575"/>
</svg>
