<svg width="24" height="41" viewBox="0 0 24 41" fill="none" xmlns="http://www.w3.org/2000/svg">
<path d="M4.70174 23.6446L8.35049 17.323L8.14049 16.9593C7.82659 16.4326 7.62361 15.8474 7.54402 15.2394C7.46443 14.6315 7.50991 14.0137 7.67766 13.424C7.84541 12.8343 8.1319 12.2851 8.51955 11.8101C8.90719 11.3351 9.38782 10.9443 9.93192 10.6617C10.476 10.3791 11.0721 10.2107 11.6837 10.1668C12.2952 10.1229 12.9093 10.2044 13.4882 10.4064C14.0671 10.6083 14.5986 10.9265 15.0501 11.3412C15.5016 11.756 15.8637 12.2586 16.1139 12.8183C16.1925 12.9892 16.2054 13.183 16.1503 13.3628C16.0951 13.5426 15.9757 13.6959 15.8149 13.7933C15.7234 13.8464 15.6218 13.8796 15.5166 13.8906C15.4115 13.9017 15.3052 13.8904 15.2047 13.8574C15.1042 13.8245 15.0118 13.7707 14.9336 13.6995C14.8554 13.6284 14.7931 13.5415 14.7508 13.4446C14.5853 13.0705 14.345 12.7342 14.0447 12.4563C13.7444 12.1785 13.3905 11.965 13.0047 11.829C12.6188 11.693 12.2093 11.6374 11.8012 11.6655C11.393 11.6936 10.995 11.8049 10.6314 11.9925C10.2679 12.1802 9.9466 12.4402 9.68726 12.7565C9.42791 13.0729 9.23601 13.439 9.12335 13.8323C9.01069 14.2255 8.97966 14.6377 9.03215 15.0434C9.08465 15.4491 9.21957 15.8398 9.42862 16.1914C9.43165 16.1951 9.43418 16.1992 9.43612 16.2036L10.7327 18.448C10.7985 18.562 10.8332 18.6913 10.8332 18.823C10.8332 18.9547 10.7985 19.084 10.7327 19.198L7.29956 25.1446C7.09803 25.4838 6.77092 25.73 6.38912 25.8298C6.00732 25.9296 5.60159 25.8749 5.25985 25.6775C4.91811 25.4802 4.66789 25.1562 4.56342 24.7756C4.45895 24.3951 4.50865 23.9887 4.70174 23.6446ZM17.9205 19.8946H16.7636L13.2996 13.8946C13.098 13.5553 12.7709 13.3091 12.3891 13.2093C12.0073 13.1096 11.6016 13.1643 11.2598 13.3616C10.9181 13.5589 10.6679 13.883 10.5634 14.2635C10.459 14.644 10.5087 15.0504 10.7017 15.3946L13.9492 21.0196C14.015 21.1335 14.1096 21.2281 14.2234 21.2939C14.3373 21.3597 14.4665 21.3944 14.598 21.3946H17.9383C19.6155 21.3946 21.0274 22.7671 21.0002 24.4443C20.9873 25.2263 20.6695 25.9723 20.1145 26.5234C19.5596 27.0745 18.8113 27.3871 18.0292 27.3946C17.8376 27.3923 17.652 27.4613 17.5085 27.5884C17.365 27.7154 17.2739 27.8913 17.253 28.0818C17.2443 28.1854 17.2572 28.2897 17.291 28.3881C17.3248 28.4865 17.3786 28.5767 17.4492 28.6532C17.5197 28.7296 17.6053 28.7905 17.7007 28.8321C17.796 28.8737 17.899 28.8949 18.003 28.8946C18.6012 28.894 19.1933 28.7744 19.7447 28.5426C20.2961 28.3108 20.7959 27.9715 21.2148 27.5445C21.6337 27.1175 21.9633 26.6113 22.1845 26.0555C22.4057 25.4997 22.5139 24.9055 22.503 24.3074C22.4524 21.8436 20.3889 19.8946 17.9242 19.8946H17.9205ZM19.5002 24.3224C19.4627 23.5152 18.7671 22.8946 17.9599 22.8946H10.7636C10.6319 22.8945 10.5026 22.9292 10.3885 22.995C10.2745 23.0608 10.1798 23.1555 10.1139 23.2696L8.59893 25.8946C8.39444 26.2472 8.12024 26.5544 7.79307 26.7975C7.46589 27.0407 7.0926 27.2146 6.69599 27.3086C6.29937 27.4027 5.88775 27.4149 5.48624 27.3446C5.08473 27.2743 4.70177 27.1229 4.36072 26.8996C4.01967 26.6764 3.72769 26.386 3.50261 26.0462C3.27752 25.7063 3.12405 25.3242 3.05156 24.9231C2.97908 24.522 2.98909 24.1103 3.081 23.7131C3.1729 23.316 3.34477 22.9418 3.58612 22.6133C3.70269 22.4615 3.75845 22.2717 3.7425 22.081C3.72655 21.8903 3.64003 21.7124 3.49987 21.5821C3.42238 21.513 3.3314 21.4608 3.23269 21.4287C3.13398 21.3967 3.02969 21.3854 2.92642 21.3957C2.82314 21.406 2.72313 21.4377 2.63271 21.4886C2.54229 21.5396 2.46343 21.6087 2.40112 21.6918C1.8226 22.4584 1.50666 23.3911 1.50018 24.3514C1.49128 25.3452 1.81157 26.3139 2.41109 27.1065C3.01061 27.8991 3.85563 28.4709 4.81429 28.7327C5.77295 28.9946 6.79133 28.9317 7.71051 28.554C8.6297 28.1762 9.39798 27.5048 9.89549 26.6446L10.3286 25.8946H18.0002C18.2034 25.8948 18.4045 25.8537 18.5914 25.7739C18.7782 25.694 18.9469 25.577 19.0872 25.43C19.2275 25.283 19.3364 25.109 19.4074 24.9186C19.4784 24.7282 19.51 24.5253 19.5002 24.3224Z" fill="#03C068"/>
</svg>
