<svg width="22" height="19" viewBox="0 0 22 19" fill="none" xmlns="http://www.w3.org/2000/svg">
<path d="M15.7024 15.1445H9.43611C9.3226 15.8163 9.05803 16.4535 8.66237 17.0081C8.26672 17.5627 7.7503 18.0203 7.15205 18.3462C6.55381 18.6722 5.88937 18.8581 5.20883 18.8898C4.52829 18.9216 3.84942 18.7984 3.22342 18.5296C2.59742 18.2608 2.04062 17.8533 1.59502 17.338C1.14943 16.8226 0.826661 16.2128 0.651065 15.5546C0.475468 14.8963 0.451627 14.2068 0.581338 13.5379C0.711049 12.8691 0.990927 12.2385 1.39986 11.6936C1.51934 11.5345 1.69713 11.4293 1.89413 11.4013C2.09113 11.3732 2.2912 11.4246 2.45033 11.5441C2.60946 11.6635 2.71462 11.8413 2.74266 12.0383C2.7707 12.2353 2.71934 12.4354 2.59986 12.5945C2.2085 13.1128 1.99775 13.7451 1.99986 14.3945C1.99986 15.1902 2.31593 15.9532 2.87854 16.5159C3.44115 17.0785 4.20421 17.3945 4.99986 17.3945C5.79551 17.3945 6.55858 17.0785 7.12119 16.5159C7.68379 15.9532 7.99986 15.1902 7.99986 14.3945C7.99986 14.1956 8.07888 14.0049 8.21953 13.8642C8.36019 13.7235 8.55095 13.6445 8.74986 13.6445H15.7024C15.8675 13.3586 16.1223 13.1351 16.4274 13.0087C16.7324 12.8823 17.0707 12.8602 17.3896 12.9456C17.7086 13.0311 17.9904 13.2194 18.1914 13.4814C18.3924 13.7434 18.5014 14.0643 18.5014 14.3945C18.5014 14.7247 18.3924 15.0457 18.1914 15.3077C17.9904 15.5696 17.7086 15.758 17.3896 15.8434C17.0707 15.9289 16.7324 15.9067 16.4274 15.7803C16.1223 15.654 15.8675 15.4305 15.7024 15.1445ZM4.99986 15.8945C5.25966 15.8946 5.51503 15.8272 5.74096 15.699C5.96689 15.5707 6.15563 15.386 6.2887 15.1628C6.42176 14.9397 6.4946 14.6858 6.50006 14.4261C6.50552 14.1663 6.44343 13.9096 6.31986 13.6811L9.6733 8.23047C9.77738 8.06112 9.80996 7.85738 9.76391 7.66401C9.71785 7.47065 9.59692 7.30347 9.42768 7.19922C9.02681 6.95243 8.68964 6.61478 8.44343 6.21355C8.19723 5.81232 8.0489 5.35879 8.01044 4.88962C7.97198 4.42044 8.04447 3.94881 8.22204 3.51284C8.39962 3.07688 8.6773 2.68882 9.03263 2.38004C9.38796 2.07127 9.81096 1.85045 10.2674 1.73543C10.7239 1.62042 11.2011 1.61444 11.6603 1.71798C12.1195 1.82152 12.5479 2.03168 12.9108 2.33146C13.2738 2.63123 13.5611 3.01221 13.7496 3.44359C13.8291 3.62597 13.9779 3.76927 14.1631 3.84197C14.3483 3.91467 14.5548 3.91081 14.7372 3.83125C14.9196 3.75168 15.0629 3.60293 15.1356 3.41771C15.2083 3.23249 15.2044 3.02597 15.1249 2.84359C14.8547 2.22599 14.4492 1.67698 13.9384 1.23712C13.4276 0.797248 12.8245 0.477764 12.1736 0.302265C11.5228 0.126766 10.8408 0.0997358 10.1781 0.223171C9.51537 0.346607 8.88886 0.617354 8.34483 1.01541C7.8008 1.41347 7.35315 1.92867 7.03495 2.52295C6.71676 3.11723 6.53614 3.7754 6.50644 4.44885C6.47675 5.1223 6.59873 5.79382 6.86339 6.4138C7.12804 7.03378 7.52861 7.58638 8.03549 8.03078L5.04111 12.8945C5.02705 12.8945 5.01393 12.8945 4.99986 12.8945C4.60204 12.8945 4.22051 13.0526 3.9392 13.3339C3.6579 13.6152 3.49986 13.9967 3.49986 14.3945C3.49986 14.7924 3.6579 15.1739 3.9392 15.4552C4.22051 15.7365 4.60204 15.8945 4.99986 15.8945ZM16.9999 9.89453C16.4216 9.89457 15.8487 10.0056 15.3124 10.2217L12.3199 5.35703C12.4758 5.06808 12.5327 4.73593 12.4817 4.41155C12.4307 4.08717 12.2746 3.78849 12.0375 3.56134C11.8004 3.33419 11.4953 3.19113 11.169 3.1541C10.8428 3.11707 10.5134 3.18812 10.2314 3.35636C9.94938 3.52459 9.73038 3.78071 9.60799 4.08541C9.48559 4.39011 9.46656 4.72655 9.55381 5.04311C9.64106 5.35966 9.82978 5.63885 10.091 5.83781C10.3522 6.03677 10.6715 6.14453 10.9999 6.14453H11.0411L14.3955 11.5961C14.4999 11.7652 14.6671 11.8859 14.8605 11.9318C15.0538 11.9777 15.2575 11.9449 15.4267 11.8408C15.8216 11.5974 16.2675 11.4488 16.7295 11.4068C17.1915 11.3649 17.6569 11.4306 18.0891 11.5988C18.5214 11.7671 18.9088 12.0333 19.2208 12.3765C19.5329 12.7197 19.761 13.1306 19.8875 13.5769C20.0139 14.0232 20.0351 14.4928 19.9494 14.9487C19.8637 15.4045 19.6735 15.8343 19.3937 16.2043C19.1138 16.5743 18.752 16.8743 18.3367 17.0808C17.9213 17.2873 17.4637 17.3947 16.9999 17.3945C16.801 17.3945 16.6102 17.4735 16.4695 17.6142C16.3289 17.7549 16.2499 17.9456 16.2499 18.1445C16.2499 18.3434 16.3289 18.5342 16.4695 18.6749C16.6102 18.8155 16.801 18.8945 16.9999 18.8945C18.1933 18.8945 19.3379 18.4204 20.1818 17.5765C21.0258 16.7326 21.4999 15.588 21.4999 14.3945C21.4999 13.2011 21.0258 12.0565 20.1818 11.2125C19.3379 10.3686 18.1933 9.89453 16.9999 9.89453Z" fill="#757575"/>
</svg>
