<svg width="22" height="19" viewBox="0 0 22 19" fill="none" xmlns="http://www.w3.org/2000/svg">
<path d="M3.70174 13.6446L7.35049 7.323L7.14049 6.95925C6.82659 6.4326 6.62361 5.84735 6.54402 5.23943C6.46443 4.63151 6.50991 4.01374 6.67766 3.42403C6.84541 2.83431 7.1319 2.2851 7.51955 1.81009C7.90719 1.33508 8.38782 0.9443 8.93192 0.661722C9.47603 0.379145 10.0721 0.210735 10.6837 0.166828C11.2952 0.122921 11.9093 0.204442 12.4882 0.406389C13.0671 0.608337 13.5986 0.92645 14.0501 1.34121C14.5016 1.75596 14.8637 2.25862 15.1139 2.81831C15.1925 2.9892 15.2054 3.18302 15.1503 3.36282C15.0951 3.54263 14.9757 3.69586 14.8149 3.79331C14.7234 3.84641 14.6218 3.87957 14.5166 3.89062C14.4115 3.90167 14.3052 3.89035 14.2047 3.85742C14.1042 3.82449 14.0118 3.77068 13.9336 3.69953C13.8554 3.62837 13.7931 3.54149 13.7508 3.44456C13.5853 3.07046 13.345 2.73416 13.0447 2.45633C12.7444 2.17851 12.3905 1.96504 12.0047 1.82905C11.6188 1.69305 11.2093 1.6374 10.8012 1.66551C10.393 1.69363 9.99497 1.80492 9.63144 1.99255C9.26792 2.18017 8.9466 2.44016 8.68726 2.75654C8.42791 3.07291 8.23601 3.43899 8.12335 3.83226C8.01069 4.22553 7.97966 4.63769 8.03215 5.0434C8.08465 5.44911 8.21957 5.83979 8.42862 6.19144C8.43165 6.19515 8.43418 6.19924 8.43612 6.20363L9.73268 8.448C9.79851 8.56202 9.83316 8.69135 9.83316 8.823C9.83316 8.95465 9.79851 9.08399 9.73268 9.198L6.29956 15.1446C6.09803 15.4838 5.77092 15.73 5.38912 15.8298C5.00732 15.9296 4.60159 15.8749 4.25985 15.6775C3.91811 15.4802 3.66789 15.1562 3.56342 14.7756C3.45895 14.3951 3.50865 13.9887 3.70174 13.6446ZM16.9205 9.89456H15.7636L12.2996 3.89456C12.098 3.55528 11.7709 3.30908 11.3891 3.20932C11.0073 3.10955 10.6016 3.16426 10.2598 3.36159C9.91811 3.55891 9.66789 3.88296 9.56342 4.2635C9.45895 4.64404 9.50865 5.05041 9.70174 5.39456L12.9492 11.0196C13.015 11.1335 13.1096 11.2281 13.2234 11.2939C13.3373 11.3597 13.4665 11.3944 13.598 11.3946H16.9383C18.6155 11.3946 20.0274 12.7671 20.0002 14.4443C19.9873 15.2263 19.6695 15.9723 19.1145 16.5234C18.5596 17.0745 17.8113 17.3871 17.0292 17.3946C16.8376 17.3923 16.652 17.4613 16.5085 17.5884C16.365 17.7154 16.2739 17.8913 16.253 18.0818C16.2443 18.1854 16.2572 18.2897 16.291 18.3881C16.3248 18.4865 16.3786 18.5767 16.4492 18.6532C16.5197 18.7296 16.6053 18.7905 16.7007 18.8321C16.796 18.8737 16.899 18.8949 17.003 18.8946C17.6012 18.894 18.1933 18.7744 18.7447 18.5426C19.2961 18.3108 19.7959 17.9715 20.2148 17.5445C20.6337 17.1175 20.9633 16.6113 21.1845 16.0555C21.4057 15.4997 21.5139 14.9055 21.503 14.3074C21.4524 11.8436 19.3889 9.89456 16.9242 9.89456H16.9205ZM18.5002 14.3224C18.4627 13.5152 17.7671 12.8946 16.9599 12.8946H9.76362C9.63194 12.8945 9.50257 12.9292 9.38852 12.995C9.27448 13.0608 9.17977 13.1555 9.11393 13.2696L7.59893 15.8946C7.39444 16.2472 7.12024 16.5544 6.79307 16.7975C6.46589 17.0407 6.0926 17.2146 5.69599 17.3086C5.29937 17.4027 4.88775 17.4149 4.48624 17.3446C4.08473 17.2743 3.70177 17.1229 3.36072 16.8996C3.01967 16.6764 2.72769 16.386 2.50261 16.0462C2.27752 15.7063 2.12405 15.3242 2.05156 14.9231C1.97908 14.522 1.98909 14.1103 2.081 13.7131C2.1729 13.316 2.34477 12.9418 2.58612 12.6133C2.70269 12.4615 2.75845 12.2717 2.7425 12.081C2.72655 11.8903 2.64003 11.7124 2.49987 11.5821C2.42238 11.513 2.3314 11.4608 2.23269 11.4287C2.13398 11.3967 2.02969 11.3854 1.92642 11.3957C1.82314 11.406 1.72313 11.4377 1.63271 11.4886C1.54229 11.5396 1.46343 11.6087 1.40112 11.6918C0.822597 12.4584 0.506655 13.3911 0.500181 14.3514C0.491277 15.3452 0.811574 16.3139 1.41109 17.1065C2.01061 17.8991 2.85563 18.4709 3.81429 18.7327C4.77295 18.9946 5.79133 18.9317 6.71051 18.554C7.6297 18.1762 8.39798 17.5048 8.89549 16.6446L9.32862 15.8946H17.0002C17.2034 15.8948 17.4045 15.8537 17.5914 15.7739C17.7782 15.694 17.9469 15.577 18.0872 15.43C18.2275 15.283 18.3364 15.109 18.4074 14.9186C18.4784 14.7282 18.51 14.5253 18.5002 14.3224Z" fill="#03C068"/>
</svg>
